# xmcd
#
# Track frame offsets:
#	150
#	12506
#	28968
#	44721
#	62945
#	76072
#	92080
#	114338
#	128446
#	151362
#	169694
#	190253
#	190799
#	220544
#	232689
#
# Disc length: 3236 seconds
#
# Revision: 0
# Processed by: cddbd v1.5.1PL0 Copyright (c) Steve Scherf et al.
# Submitted via: EasyCDDAExtractor 8.2.3.1
#
DISCID=bb0ca20f
DTITLE=Pirongia Mountain Men - Merry Christmas
DYEAR=2000
DGENRE=Easy Listening
TTITLE0=I Caught Santa In Our Fridge
TTITLE1=Hey What Happen To Santa
TTITLE2=A Kiwi Christmas
TTITLE3=Big Bid Wolfy Santa
TTITLE4=One For The Elves
TTITLE5=Santa's Beard
TTITLE6=Johnny Christmas
TTITLE7=Dear Santa
TTITLE8=Merry Christmas Baby
TTITLE9=Santa Rode A Harley
TTITLE10=Santa Claus
TTITLE11=Ok Kids
TTITLE12=Emily's Story
TTITLE13=The Lazy Elf
TTITLE14=Santa's Dilemma
EXTD=
EXTT0=
EXTT1=
EXTT2=
EXTT3=
EXTT4=
EXTT5=
EXTT6=
EXTT7=
EXTT8=
EXTT9=
EXTT10=
EXTT11=
EXTT12=
EXTT13=
EXTT14=
PLAYORDER=
